<svg xmlns="http://www.w3.org/2000/svg" width="24.409" height="24.409"><g transform="translate(-2 -2)" fill="none" stroke="#ff4800" stroke-linecap="round" stroke-linejoin="round" stroke-width="2"><path data-name="パス 3310" d="M12.119 4.64a2.146 2.146 0 014.171 0 2.146 2.146 0 003.2 1.327 2.147 2.147 0 012.95 2.95 2.146 2.146 0 001.326 3.2 2.146 2.146 0 010 4.171 2.146 2.146 0 00-1.327 3.2 2.147 2.147 0 01-2.95 2.95 2.146 2.146 0 00-3.2 1.326 2.146 2.146 0 01-4.171 0 2.146 2.146 0 00-3.2-1.327 2.147 2.147 0 01-2.95-2.95 2.146 2.146 0 00-1.326-3.2 2.146 2.146 0 010-4.171 2.146 2.146 0 001.327-3.2 2.147 2.147 0 012.95-2.95 2.144 2.144 0 003.2-1.326z"/><circle data-name="楕円形 352" cx="4" cy="4" r="4" transform="translate(10.204 10.204)"/></g></svg>