<svg id="icon_contact" xmlns="http://www.w3.org/2000/svg" width="19" height="19" viewBox="0 0 19 19">
  <path id="パス_3981" data-name="パス 3981" d="M0,0H19V19H0Z" fill="none"/>
  <path id="パス_3982" data-name="パス 3982" d="M2,3.786A.792.792,0,0,1,2.785,3H17.048a.786.786,0,0,1,.785.786V16.464a.792.792,0,0,1-.785.786H2.785A.786.786,0,0,1,2,16.464Zm7.125.8H3.583V15.667H9.125Zm1.583,0V15.667H16.25V4.583ZM11.5,6.167h3.958V7.75H11.5Zm0,2.375h3.958v1.583H11.5Z" transform="translate(-0.417 -0.625)" fill="#fff"/>
</svg>
