<svg xmlns="http://www.w3.org/2000/svg" width="25.289" height="25.288" viewBox="0 0 25.289 25.288">
  <g id="icon_phone" transform="translate(0)">
    <path id="パス_3732" data-name="パス 3732" d="M28.288,21.853v4.968a1.4,1.4,0,0,1-1.307,1.4c-.614.042-1.115.065-1.5.065A22.477,22.477,0,0,1,3,5.81q0-.582.065-1.5A1.4,1.4,0,0,1,4.467,3H9.434a.7.7,0,0,1,.7.632c.032.323.062.58.09.775a19.529,19.529,0,0,0,1.7,5.621.64.64,0,0,1-.207.8L8.683,12.991A18.329,18.329,0,0,0,18.3,22.606l2.163-3.026a.649.649,0,0,1,.8-.209,19.529,19.529,0,0,0,5.619,1.693c.2.028.452.059.773.09a.7.7,0,0,1,.631.7Z" transform="translate(-3 -3)" fill="#ef5d1d"/>
  </g>
</svg>
