<svg xmlns="http://www.w3.org/2000/svg" width="24.409" height="24.409" viewBox="0 0 24.409 24.409">
  <g id="icon_support_1" transform="translate(-2 -2)">
    <path id="パス_3310" data-name="パス 3310" d="M12.119,4.64a2.146,2.146,0,0,1,4.171,0,2.146,2.146,0,0,0,3.2,1.327,2.147,2.147,0,0,1,2.95,2.95,2.146,2.146,0,0,0,1.326,3.2,2.146,2.146,0,0,1,0,4.171,2.146,2.146,0,0,0-1.327,3.2,2.147,2.147,0,0,1-2.95,2.95,2.146,2.146,0,0,0-3.2,1.326,2.146,2.146,0,0,1-4.171,0,2.146,2.146,0,0,0-3.2-1.327,2.147,2.147,0,0,1-2.95-2.95,2.146,2.146,0,0,0-1.326-3.2,2.146,2.146,0,0,1,0-4.171,2.146,2.146,0,0,0,1.327-3.2,2.147,2.147,0,0,1,2.95-2.95,2.144,2.144,0,0,0,3.2-1.326Z" transform="translate(0 0)" fill="none" stroke="#ff4800" stroke-linecap="round" stroke-linejoin="round" stroke-width="2"/>
    <circle id="楕円形_352" data-name="楕円形 352" cx="4" cy="4" r="4" transform="translate(10.204 10.204)" fill="none" stroke="#ff4800" stroke-linecap="round" stroke-linejoin="round" stroke-width="2"/>
  </g>
</svg>
